# xmcd
#
# Track frame offsets:
#	150
#	16622
#	33829
#	50122
#	63524
#	80148
#	92785
#	112212
#	125212
#	140640
#	155658
#	169241
#
# Disc length: 2475 seconds
#
# Revision: 1
# Processed by: cddbd v1.4PL0 Copyright (c) Steve Scherf et al.
# Submitted via: audiograbber 1.81.01
#
DISCID=af09a90c
DTITLE=Luciano Rossi - I Grandi Successi Originali cd1
DYEAR=1900
DGENRE=Pop
TTITLE0=Ammazzate Oh!
TTITLE1=Senza parole
TTITLE2=Temo sempre dè più
TTITLE3=Se mi lasci non vale
TTITLE4=Bambola
TTITLE5=Aho... sta bbna 'ndo vai
TTITLE6=Bella
TTITLE7=Amore bello
TTITLE8=Poeta leggermente un po' finito
TTITLE9=Invitamolo
TTITLE10=Amore mio bene mio
TTITLE11=Povera cocca
EXTD=
EXTT0=
EXTT1=
EXTT2=
EXTT3=
EXTT4=
EXTT5=
EXTT6=
EXTT7=
EXTT8=
EXTT9=
EXTT10=
EXTT11=
PLAYORDER=
